<?xml version="1.0" encoding="UTF-8" standalone="no"?>
<svg
   height="24px"
   viewBox="0 -960 960 960"
   width="24px"
   fill="#e8eaed"
   version="1.1"
   id="svg1"
   sodipodi:docname="internet.svg"
   inkscape:version="1.3 (0e150ed6c4, 2023-07-21)"
   xmlns:inkscape="http://www.inkscape.org/namespaces/inkscape"
   xmlns:sodipodi="http://sodipodi.sourceforge.net/DTD/sodipodi-0.dtd"
   xmlns="http://www.w3.org/2000/svg"
   xmlns:svg="http://www.w3.org/2000/svg">
  <defs
     id="defs1" />
  <sodipodi:namedview
     id="namedview1"
     pagecolor="#ffffff"
     bordercolor="#000000"
     borderopacity="0.25"
     inkscape:showpageshadow="2"
     inkscape:pageopacity="0.0"
     inkscape:pagecheckerboard="0"
     inkscape:deskcolor="#d1d1d1"
     inkscape:zoom="33.125"
     inkscape:cx="11.984906"
     inkscape:cy="12"
     inkscape:window-width="1920"
     inkscape:window-height="991"
     inkscape:window-x="-9"
     inkscape:window-y="-9"
     inkscape:window-maximized="1"
     inkscape:current-layer="svg1" />
  <path
     d="M 480,0 Q 381.25,0 293.75,-37.5 206.25,-75 140.625,-140.625 75,-206.25 37.5,-293.75 0,-381.25 0,-480 0,-580 37.5,-666.875 75,-753.75 140.625,-819.375 206.25,-885 293.75,-922.5 381.25,-960 480,-960 q 100,0 186.875,37.5 86.875,37.5 152.5,103.125 Q 885,-753.75 922.5,-666.875 960,-580 960,-480 q 0,98.75 -37.5,186.25 -37.5,87.5 -103.125,153.125 Q 753.75,-75 666.875,-37.5 580,0 480,0 Z m 0,-93.75 Q 501.25,-115 522.5,-173.125 543.75,-231.25 555,-300 H 405 q 11.25,68.75 32.5,126.875 21.25,58.125 42.5,79.375 z m -113.75,-12.5 q -17.5,-37.5 -30.625,-86.25 Q 322.5,-241.25 313.75,-300 H 135 q 36.25,71.25 96.25,121.875 60,50.625 135,71.875 z m 227.5,0 q 75,-21.25 135,-71.875 Q 788.75,-228.75 825,-300 H 646.25 q -8.75,58.75 -21.875,107.5 -13.125,48.75 -30.625,86.25 z M 101.25,-390 H 302.5 q -2.5,-23.75 -3.125,-46.875 -0.625,-23.125 -0.625,-45.625 0,-22.5 0.625,-44.375 Q 300,-548.75 302.5,-570 H 101.25 Q 95,-546.25 92.5,-524.375 90,-502.5 90,-480 q 0,22.5 2.5,44.375 2.5,21.875 8.75,45.625 z m 292.5,0 h 172.5 q 2.5,-25 3.125,-46.875 Q 570,-458.75 570,-480 q 0,-21.25 -0.625,-43.75 -0.625,-22.5 -3.125,-46.25 h -172.5 q -2.5,23.75 -3.125,46.25 -0.625,22.5 -0.625,43.75 0,21.25 0.625,43.75 0.625,22.5 3.125,46.25 z m 263.75,0 h 201.25 q 6.25,-23.75 8.75,-45.625 2.5,-21.875 2.5,-44.375 0,-22.5 -2.5,-45 -2.5,-22.5 -8.75,-45 H 657.5 q 2.5,23.75 3.125,46.875 0.625,23.125 0.625,45.625 0,22.5 -0.625,44.375 Q 660,-411.25 657.5,-390 Z M 646.25,-660 H 825 q -36.25,-71.25 -96.25,-121.875 -60,-50.625 -135,-71.875 17.5,37.5 30.625,86.25 13.125,48.75 21.875,107.5 z M 405,-660 H 555 Q 543.75,-728.75 522.5,-786.875 501.25,-845 480,-866.25 458.75,-845 437.5,-786.875 416.25,-728.75 405,-660 Z m -270,0 h 178.75 q 8.75,-58.75 21.875,-107.5 13.125,-48.75 30.625,-86.25 -75,21.25 -135,71.875 -60,50.625 -96.25,121.875 z"
     id="path1"
     style="stroke-width:1.25;fill:#eeeeee;fill-opacity:1" />
</svg>
